<svg width="400" height="327" fill="none" xmlns="http://www.w3.org/2000/svg"><g clip-path="url(#clip0)"><path d="M141.846 274.97H91.923v51.956h49.923V274.97zm229.637-35.322H246.337v23.336h125.146v-23.336zM131.43 147.146L6.61 219.25l75.636 43.69 200.457-115.794H131.43z" fill="#C0DCDD"/><path d="M31.674 204.608L0 222.896v50.79L92.292 327l75.636-43.69-136.254-78.702z" fill="#C0DCDD"/><path d="M286.036 213.271h-16.862v17.89h16.862v-17.89z" fill="#2D282F"/><path d="M188.611 165.02l-8.969 5.181v9.771l5.738-3.306a6.485 6.485 0 003.231-5.609v-6.037zm19.149-31.277l-43.373 25.048v5.565l43.373-25.048v-5.565z" fill="#3D3741"/><path d="M229.034 144.341l-19.769-11.41-23.678 13.683 19.754 11.41 23.693-13.683z" fill="#5F5C63"/><path d="M218.5 144.725l-43.358 25.063v5.564l43.358-25.048v-5.579z" fill="#3D3741"/><path d="M334.971 47.38l-48.167 28.03 18.647 82.939L400 84.532l-65.029-37.151z" fill="#5F5C63"/><path d="M306.676 63.853l77.687 32.886L400 84.532l-65.029-37.151-28.295 16.472z" fill="#6B686F"/><path d="M400 84.532l-48.152 28.015 18.632 82.938L400 178.437V84.532z" fill="#6B686F"/><path d="M370.289 176.046v-67.425l.206-.118 26.127-15.085v67.469l-.207.119-26.126 15.04zm.811-66.952v65.55l24.71-14.273v-65.55l-24.71 14.273z" fill="#35323A"/><path d="M186.856 183.84a11.054 11.054 0 01-5.636-1.476c-3.968-2.288-6.152-6.923-6.152-13.034v-16.561h4.706v16.561c0 4.428 1.343 7.543 3.807 8.96 2.463 1.417 5.901 1.004 9.81-1.21l15.048-8.709 2.36 4.089-15.062 8.693a17.95 17.95 0 01-8.881 2.687z" fill="#3D3741"/><path d="M281.08 226.143l-26.186-15.13v28.96l26.186 15.115v-28.945z" fill="#2D282F"/><path d="M287.335 85.448l-82.599 6.361v148.4l79-45.638 3.599-109.123z" fill="#2D282F"/><path d="M211.64 83.1l-11.684-6.745v113.492l11.684 6.76V83.101z" fill="#326ABA"/><path d="M207.981 85.27l-11.684-6.745v113.492l11.684 6.76V85.27z" fill="#326ABA"/><path d="M196.297 184.799l.974.561 10.71-16.251.9-19.484-12.584-7.837v43.011z" fill="#326ABA"/><path d="M78.66 253.095L200 182.733l74.589 43.72-119.215 74.259-76.713-47.617z" fill="#2D282F"/><path d="M89.106 234.969L278.498 126.26l-65.073 51.794-124.32 71.809c-7.582 4.369-7.582-10.524 0-14.894z" fill="#48444D"/><path d="M278.499 126.26l67.67 39.38-192.772 123.839-67.655-39.07L278.5 126.26z" fill="#48444D"/><path d="M86.096 250.615l67.33 38.864 10.327-6.598-77.834-44.93c-3.305 4.768-3.305 12.03.177 12.664zm93.531 10.761l-68.054-39.307-12.377 7.1 68.083 39.336 12.348-7.129zm25.315-14.849l-67.758-39.159-12.392 7.114 67.817 39.174 12.333-7.129zm27.381-14.643l-68.703-39.69-12.377 7.114 68.732 39.706 12.348-7.13zm26.274-15.188l-68.614-39.631-12.377 7.1 68.658 39.66 12.333-7.129zm22.218-17.889l-64.144-37.064-12.378 7.115 64.188 37.078 12.334-7.129z" fill="#535058"/><path d="M340.444 169.493l-68.437-39.543-60.426 34.908 68.422 39.543 60.441-34.908zM164.447 282.38l-78.04-45.078a12.38 12.38 0 00-1.122 1.638l77.288 44.65 1.874-1.21zm12.465-8.015L98.93 229.331l-1.977 1.137 78.1 45.107 1.859-1.21zm12.481-8l-77.244-44.621-1.992 1.137 77.362 44.679 1.874-1.195zm12.466-8.015l-76.507-44.193-1.977 1.137 76.61 44.251 1.874-1.195zm12.466-8.015l-75.754-43.764-1.992 1.136 75.887 43.838 1.859-1.21zm12.481-8l-75.032-43.336-1.977 1.136 75.135 43.396 1.874-1.196zm12.465-8.015l-74.279-42.909-1.977 1.137 74.383 42.967 1.873-1.195zm12.466-8.015l-73.541-42.48-1.977 1.136 73.659 42.54 1.859-1.196zm12.481-8.015l-72.804-42.052-1.977 1.137 72.907 42.126 1.874-1.211zm12.466-8l-72.066-41.624-1.977 1.137 72.169 41.683 1.874-1.196z" fill="#3D3741"/><path d="M289.15 202.276l-71.314-41.196-1.977 1.136 71.417 41.255 1.874-1.195zm12.48-8.015l-70.576-40.768-1.992 1.136 70.694 40.842 1.874-1.21zm12.466-8.016l-69.839-40.339-1.977 1.136 69.942 40.414 1.874-1.211z" fill="#3D3741"/><path d="M156.761 273.863l189.392-108.71-65.088 51.824-124.304 71.809c-7.583 4.354-7.583-10.539 0-14.923z" fill="#3D3741"/><path d="M158.236 275.472l122.829-70.953v9.949l-122.829 70.967c-6.152 3.543-6.152-6.465 0-9.963z" fill="#2D282F"/><path d="M157.38 280.815a5.19 5.19 0 012.36-4.059c1.299-.753 2.361-.148 2.361 1.343a5.187 5.187 0 01-2.361 4.059c-1.298.753-2.36.162-2.36-1.343zm11.492-7.011a5.18 5.18 0 012.345-4.059c1.299-.753 2.361-.148 2.361 1.343a5.198 5.198 0 01-2.361 4.059c-1.298.753-2.345.148-2.345-1.343zm23.531-13.27a5.183 5.183 0 012.345-4.059c1.298-.753 2.361-.147 2.361 1.343a5.207 5.207 0 01-2.361 4.06c-1.298.752-2.345.162-2.345-1.344zm11.581-6.804a5.164 5.164 0 012.346-4.059c1.313-.753 2.36-.163 2.36 1.343a5.157 5.157 0 01-.693 2.313 5.158 5.158 0 01-1.667 1.746c-1.269.753-2.346.147-2.346-1.343zm10.252-5.904a5.207 5.207 0 01.696-2.312c.41-.705.98-1.304 1.665-1.747 1.298-.753 2.36-.148 2.36 1.343a5.192 5.192 0 01-2.36 4.059c-1.298.753-2.361.148-2.361-1.343zm8.852-4.974a5.157 5.157 0 012.346-4.059c1.298-.753 2.36-.163 2.36 1.343a5.194 5.194 0 01-2.36 4.059c-1.299.826-2.346.147-2.346-1.343zm19.207-11.115a5.18 5.18 0 012.346-4.059c1.298-.753 2.36-.148 2.36 1.343a5.197 5.197 0 01-2.36 4.059c-1.224.679-2.346.133-2.346-1.343zm10.047-6.066a5.226 5.226 0 012.36-4.074c1.299-.738 2.361-.148 2.361 1.343a5.211 5.211 0 01-2.361 4.074c-1.298.753-2.36.148-2.36-1.343zm9.147-5.285a5.215 5.215 0 012.36-4.074c1.298-.752 2.361-.147 2.361 1.344a5.24 5.24 0 01-2.361 4.074c-1.254.738-2.36.147-2.36-1.344zm9.042-5.299a5.207 5.207 0 012.39-4.015c1.299-.752 2.361-.147 2.361 1.344a5.194 5.194 0 01-2.361 4.059c-1.327.708-2.39.118-2.39-1.388z" fill="#96909D"/><path d="M288.692 131.898l-11.698-6.76v127.47l11.698 6.745V131.898z" fill="#326ABA"/><path d="M288.692 212.46l-11.698-6.746v46.894l11.698 6.745V212.46z" fill="#326ABA"/><path d="M269.78 180.105l-18.028-9.8h-26.643l-3.777 43.439h20.875l27.573-15.882v-17.757z" fill="#453D3D"/><path d="M275.607 129.3l-10.784-6.007v73.831l10.784 6.007V129.3zm-12.731-7.026l-10.799-6.007v73.831l10.799 6.007v-73.831zm-12.732-7.025l-10.799-5.993v73.831l10.799 5.993v-73.831zm-12.731-7.012l-10.799-6.007v73.831l10.799 6.008v-73.832zm-12.747-7.011l-10.784-6.007v73.831l10.784 5.993v-73.817z" fill="#7A7273"/><path d="M275.607 126.245l-10.784-6.008v23.071l10.784 5.992v-23.055zm-12.731-7.026l-10.799-5.993v23.056l10.799 6.007v-23.07zm-12.732-7.011l-10.799-6.008v23.071l10.799 5.992v-23.055zm-12.731-7.026l-10.799-5.993v23.056l10.799 6.007v-23.07zm-12.747-7.012l-10.784-6.007v23.056l10.784 6.007V98.171z" fill="#655D5E"/><path d="M282.467 141.728v-13.417l-81.729-47.218V94.51l81.729 47.218z" fill="#326ABA"/><path d="M351.331 95.322l-62.668 36.576v127.47l109.552-63.956-46.884-100.09z" fill="#70A2E6"/><path d="M351.331 95.322l-3.732 2.184-58.936 157.006v4.856l20.579-12.015 60.014-113.758-17.925-38.273z" fill="#9DC7F4"/><path d="M258.907 41.964l-62.639 36.56 92.587 53.492 62.639-36.561-92.587-53.491z" fill="#88BBF2"/><path d="M153.249 296.8l121.34-70.347v25.181l-129.763 75.248 8.423-30.082z" fill="#574E53"/><path d="M350.682 188.268l-8.453-4.886-38.784 22.465 8.453 4.886 38.784-22.465z" fill="#5B92CE"/><path d="M311.898 210.202l-8.453-4.886v46.082l8.453 4.871v-46.067z" fill="#3A70CE"/><path d="M311.883 210.335l39.404-22.082v46.067l-39.404 22.096v-46.081z" fill="#70A2E6"/><path d="M261.105 90.717l44.98-25.993v7.292l-44.98 25.993v-7.292z" fill="#3A70CE"/><path d="M261.253 90.584l-44.995-25.993v7.292l44.995 25.993v-7.292z" fill="#70A2E6"/><path d="M306.101 64.71l-44.995-25.994-44.848 26.155 44.995 26.17 44.848-26.332z" fill="#9DC7F4"/><path d="M248.58 46.023l-15.49 9.033 16.022 28.93 12.141 7.056 9.264-5.447-21.937-39.572z" fill="#70A2E6"/><path d="M278.557 73.669l13.351-.635 14.192-8.325-4.204-2.524H280.18l-1.623 11.484z" fill="#3A70CE"/><path d="M180.778 265.951l4.012-2.302 2.081 1.269-2.081 38.864-9.117 7.734-2.08-1.269 7.185-44.296z" fill="#326ABA"/><path d="M182.873 267.235l3.998-2.317v40.133l-11.198 6.465 7.2-44.281z" fill="#70A2E6"/><path d="M233.621 235.324l4.013-2.317 2.08 1.269-2.095 38.864-9.102 7.749-2.08-1.284 7.184-44.281z" fill="#326ABA"/><path d="M235.701 236.593l4.013-2.317v40.148l-11.197 6.465 7.184-44.296z" fill="#70A2E6"/><path d="M190.47 156.74l-25.61-14.805-18.278 27.764 25.61 14.805 18.278-27.764z" fill="#7A7273"/><path d="M78.262 252.77l-9.205 30.318 75.946 43.868 9.205-30.318-75.946-43.868z" fill="#5F5C63"/><path d="M330.295 71.72c3.57-2.066 3.555-5.417 0-7.498a14.363 14.363 0 00-12.982 0c-3.57 2.067-3.556 5.432 0 7.513a14.36 14.36 0 0012.982-.015z" fill="#423E47"/><path d="M284.93 72.119c3.57-2.052 3.556-5.417 0-7.498a14.363 14.363 0 00-12.982 0c-3.57 2.066-3.555 5.417 0 7.498a14.318 14.318 0 0012.982 0z" fill="#3A70CE"/><path d="M282.673 70.85c2.331-1.344 2.316-3.543 0-4.9a9.395 9.395 0 00-8.483 0c-2.331 1.342-2.316 3.542 0 4.9a9.394 9.394 0 008.483 0zm45.394-.753c2.345-1.358 2.331-3.558 0-4.93a9.44 9.44 0 00-8.527 0c-2.346 1.358-2.331 3.557 0 4.93a9.438 9.438 0 008.527 0z" fill="#423E47"/><path d="M284.429 68.37h-12.068V48.99c0-27.248 12.702-36.901 25.699-44.37C306.1 0 313.949-.59 320.13 2.952c6.181 3.542 9.604 10.598 9.604 19.764V67.81h-12.053V22.775c0-4.605-1.313-8-3.585-9.314-2.272-1.313-5.901-.752-10.061 1.61-11.138 6.435-19.665 13.018-19.665 33.948l.059 19.35z" fill="#504C56"/><path d="M190.47 156.74l-25.61-14.805-18.278 27.764 25.61 14.805 18.278-27.764z" fill="#7A7273"/><path d="M187.932 155.293l-25.61-14.804-18.278 27.764 25.61 14.805 18.278-27.765z" fill="#A39494"/><path d="M183.684 156.548l-20.654-11.927-14.723 22.377 20.639 11.926 14.738-22.376z" fill="#7A7273"/><path d="M182.327 157.935l-17.939-10.347-12.791 19.425 17.939 10.362 12.791-19.44z" fill="#D0C2A6"/><path d="M381.205 256.83l-22.616-.576c.236-8.856.679-33.949 0-42.347-.678-8.399-7.125-17.344-13.277-22.141-4.322-3.424-19.636-11.808-28.281-16.236l10.327-20.119c4.057 2.096 24.666 12.812 31.954 18.584 9.663 7.646 20.462 21.697 21.745 38.185 1.033 11.218.177 43.174.148 44.65z" fill="#504C56"/><path d="M331.017 160.976c0-5.136-3.629-7.203-8.114-4.62a17.86 17.86 0 00-8.114 13.993c0 5.151 3.629 7.218 8.114 4.635a17.889 17.889 0 008.114-14.008zm47.09 100.281c4.426-2.568 4.426-6.745 0-9.343a17.887 17.887 0 00-16.227 0c-4.426 2.568-4.426 6.76 0 9.343a17.876 17.876 0 0016.227 0z" fill="#504C56"/><path d="M188.05 170.128c0-1.89-1.327-2.657-2.95-1.698a6.522 6.522 0 00-2.951 5.151c0 1.89 1.328 2.643 2.951 1.698a6.58 6.58 0 002.95-5.151z" fill="#48444D"/><path d="M315.984 141.182a9.673 9.673 0 01-4.78-1.166l-2.95-1.727 1.475-2.494 2.95 1.727a7.451 7.451 0 006.639 0l14.428-8.34c.59-.339.944-.753.944-1.077 0-.325-.369-.753-.959-1.093l-2.95-1.726 1.475-2.495 2.951 1.727a3.865 3.865 0 011.745 5.735 3.867 3.867 0 01-1.745 1.424l-14.428 8.339a9.665 9.665 0 01-4.795 1.166z" fill="#5B92CE"/><path d="M309.906 136.43c0-.65-.457-.916-1.018-.576a2.243 2.243 0 00-1.033 1.771c0 .65.458.915 1.033.576a2.27 2.27 0 001.018-1.771zm22.646-12.916c0-.649-.472-.915-1.033-.59a2.243 2.243 0 00-1.033 1.771c0 .65.458.915 1.033.591a2.287 2.287 0 001.033-1.772z" fill="#70A2E6"/><path d="M356.273 186.378c-5.089-4.029-18.47-13.49-23.604-16.236a3.149 3.149 0 00-1.475-.767 5.176 5.176 0 00-3.57.811 14.093 14.093 0 00-5.812 7.676c8.659 4.59 19.945 10.878 23.604 13.742 6.107 4.826 12.569 13.55 13.277 22.14.708 8.591.206 33.417 0 42.347-.162 1.801.944 3.631 3.334 5.019a17.827 17.827 0 0011.477 1.653c.148-8.723.502-39.174-.073-46.539-1.092-12.827-9.56-23.853-17.158-29.846z" fill="#423E47"/><path d="M238.843 237.641c0-.679-.472-.959-1.062-.62a2.412 2.412 0 00-1.077 1.845c0 .679.487.96 1.077.62a2.348 2.348 0 001.062-1.845zm-53.241 30.834c0-.679-.472-.959-1.062-.619a2.403 2.403 0 00-1.077 1.859c0 .679.487.945 1.077.605a2.337 2.337 0 001.062-1.845z" fill="#2D282F"/><path d="M278.72 70.2V50.82c0-27.248 12.702-36.901 25.698-44.37a25.338 25.338 0 0115.048-3.852C313.3-.532 305.761.162 298.001 4.62c-12.997 7.513-25.699 17.122-25.699 44.37v19.38a3.024 3.024 0 001.771 2.435 9.139 9.139 0 005.207.974 2.463 2.463 0 01-.56-1.579zm45.364-.576V24.606c0-4.606-1.313-8-3.585-9.314a6.828 6.828 0 00-4.795-.532 13.285 13.285 0 012.08 7.97v45.08a3.115 3.115 0 001.756 2.273 9.17 9.17 0 005.222.974 2.393 2.393 0 01-.678-1.432z" fill="#423E47"/><path d="M164.623 147.721l-4.971 23.956 9.884 5.698.325-.487 4.838-23.351-10.076-5.816z" fill="#A8C198"/><path d="M210.77 86.894l10.798 19.661 43.476 25.107-10.799-19.661-43.475-25.107zm77.922 87.809l-11.698-21.284v54.037l11.698 21.285v-54.038z" fill="#417ED6"/><path d="M297.677 116.385a7.505 7.505 0 01-3.644-.841l-19.429-11.233a2.948 2.948 0 01-1.682-2.568 3.856 3.856 0 012.228-3.144l30.228-17.417a8.984 8.984 0 018.247-.31l19.429 11.218a2.954 2.954 0 011.829 2.509 3.85 3.85 0 01-2.228 3.13l-30.375 17.505a9.377 9.377 0 01-4.603 1.151zm12.377-34.82a7.86 7.86 0 00-3.806.945l-30.301 17.506c-.886.517-1.476 1.151-1.476 1.727a1.481 1.481 0 00.886 1.151l19.429 11.233a7.474 7.474 0 006.623-.31l30.302-17.506c.885-.502 1.475-1.151 1.475-1.712a1.473 1.473 0 00-.885-1.166L312.872 82.2a5.765 5.765 0 00-2.818-.634z" fill="#70A2E6"/><path d="M335.753 233.744l-19.311 11.144v3.41l19.311-11.144v-3.41zm0-5.86l-19.311 11.159v3.41l19.311-11.159v-3.41zm0-5.859l-19.311 11.159v3.409l19.311-11.159v-3.409zm0-5.846l-19.311 11.144v3.41l19.311-11.159v-3.395zm0-5.859l-19.311 11.144v3.409l19.311-11.144v-3.409zm0-5.86l-19.311 11.159v3.409l19.311-11.158v-3.41z" fill="#3A70CE"/><path d="M194.173 218.453l-18.042-9.801h-26.629l-3.791 43.439h20.875l27.587-15.882v-17.756z" fill="#453D3D"/><path d="M175.644 234.379v-21.373l-55.322 2.76v21.388l25.271 14.598 30.051-17.373z" fill="#7C72E6"/><path d="M145.445 251.663l.148.089 30.051-17.373v-21.373l-30.199 1.506v37.151z" fill="#5E5CC6"/><path d="M175.644 213.006l-25.271-14.598-30.051 17.358 25.271 14.598 30.051-17.358z" fill="#9997EF"/><path d="M148.573 213.641l2.39-14.893-.591-.34-2.581 16 27.853-1.402-1.181-.679-25.89 1.314z" fill="#7C72E6"/><path d="M143.055 231.825l-6.638-3.837v4.103l6.638 3.838v-4.104z" fill="#CDB2F3"/><path d="M120.322 215.766l1.091.635 26.009-1.963-2.744 15.41.915.516 2.98-16.723-28.251 2.125z" fill="#7C72E6"/><path d="M232.692 161.02c.132.384 0 19.779 0 19.779l32.131 16.325-4.942-20.753-27.189-15.351z" fill="#453D3D" opacity=".38"/><path d="M251.25 196.032v-21.373l-55.322 2.76v21.388l25.272 14.598 30.05-17.373z" fill="#7C72E6"/><path d="M221.052 213.316l.148.089 30.05-17.373v-21.373l-30.198 1.505v37.152z" fill="#5E5CC6"/><path d="M251.25 174.659l-25.271-14.598-30.051 17.358 25.272 14.598 30.05-17.358z" fill="#9997EF"/><path d="M224.179 175.293l2.405-14.893-.605-.339-2.582 16 27.853-1.402-1.165-.679-25.906 1.313z" fill="#7C72E6"/><path d="M218.662 193.478l-6.639-3.838v4.104l6.639 3.837v-4.103z" fill="#CDB2F3"/><path d="M195.928 177.419l1.092.635 26.009-1.949-2.744 15.395.915.517 2.98-16.723-28.252 2.125z" fill="#7C72E6"/><path d="M79.693 32.694l16.523-9.328v21.21l-16.523 9.55V32.694z" fill="#423E47"/><path d="M79.693 42.126v-9.432l16.523-9.328v18.229l-16.523.531z" fill="#3D3A41"/><path d="M96.217 23.366L66.785 6.362l-15.844 9.151 29.431 17.004 15.845-9.151z" fill="#4C4951"/><path d="M82.024 24.207l5.842-3.38 3.113 1.8-5.827 3.38-3.128-1.8zm-4.145-2.362l5.842-3.365 3.127 1.8-5.842 3.366-3.127-1.8zm-4.146-2.347l5.842-3.38 3.128 1.801-5.842 3.38-3.128-1.8zm-4.13-2.361l5.827-3.366 3.128 1.801-5.828 3.366-3.127-1.801z" fill="#423E47"/><path d="M79.678 32.694L55.602 19.1v21.21l24.076 13.816V32.694z" fill="#7D7883"/><path d="M78.676 74.717c5.281 0 9.574-5.314 9.574-11.809V37.92h-2.08v24.945c0 5.388-3.364 9.757-7.494 9.757-4.131 0-7.51-4.428-7.51-9.757V37.388h-2.08v25.476c0 6.51 4.293 11.853 9.59 11.853z" fill="#393CAF"/><path d="M69.632 51.454a6.304 6.304 0 00-2.847-4.93c-1.578-.9-2.862-.177-2.862 1.639a6.276 6.276 0 002.862 4.974c1.579.856 2.847.133 2.847-1.683zm14.723-1.8a6.275 6.275 0 012.862-4.916c1.564-.915 2.847-.191 2.847 1.624a6.335 6.335 0 01-2.847 4.93c-1.579.9-2.862.177-2.862-1.638z" fill="#423E47"/><path d="M71.403 54.126l12.495.974 5.62-3.365v-6.11l-35.64-20.578-2.715 44.119-2.08 10.701 23.25 46.082 6.034 3.498 4.057-4.945-3.482-2.007L60.825 82.51v-7.764l10.578-20.62z" fill="#3D3A41"/><path d="M60.825 79.957v2.553l18.116 39.986 3.482 2.007-4.057 4.945-6.034-3.498-23.206-45.993h11.699z" fill="#4C4951"/><path d="M65.767 57.491l18.13-2.39v-6.112L48.256 28.414l-2.714 44.118 1.962 8.886 23.25 46.096 6.049 3.498v-3.143l-3.482-2.008-18.116-39.986v-7.763l10.563-20.62z" fill="#67646A"/><path d="M48.256 28.413L83.898 48.99v6.11l-18.131 2.391-.31.635-18.382-10.613 1.18-19.1z" fill="#59565C"/><path d="M76.787 131.027l5.636-3.262v-3.262l-5.636 3.395v3.129zM48.684 77.152c0-1.225.87-1.727 1.932-1.107a4.28 4.28 0 011.933 3.321c0 1.225-.87 1.727-1.933 1.107a4.28 4.28 0 01-1.932-3.32z" fill="#4C4951"/><path d="M47.946 57.964a3.215 3.215 0 001.652-.399c1.475-.856 2.301-2.79 2.301-5.328V35.32h-1.563v16.886a4.43 4.43 0 01-1.476 3.97 2.358 2.358 0 01-2.345-.235c-2.523-1.477-4.662-5.83-4.662-9.55V29.137h-1.608v17.255c0 4.428 2.39 9.151 5.444 10.907.68.416 1.46.645 2.257.665z" fill="#388895"/><path d="M45.585 65.964a4.32 4.32 0 002.213-.59c1.962-1.137 3.098-3.78 3.098-7.248V34.332H49.23v23.794c0 2.82-.84 4.989-2.272 5.8a3.54 3.54 0 01-3.585-.31C39.7 61.492 36.69 55.352 36.69 49.92V25.624h-1.667v24.295c0 6.052 3.304 12.709 7.523 15.144a6.031 6.031 0 003.04.9z" fill="#393CAF"/><path d="M38.091 31.912a5.375 5.375 0 00-2.434-4.192c-1.342-.768-2.42-.148-2.42 1.387a5.36 5.36 0 002.42 4.192c1.342.768 2.434.148 2.434-1.387zm5.503 4.988a5.226 5.226 0 00-2.287-4.103c-1.313-.752-2.375-.147-2.375 1.344a5.257 5.257 0 002.375 4.103c1.224.753 2.287.133 2.287-1.343z" fill="#423E47"/><path d="M48.344 13.402c0-2.287 1.623-3.217 3.63-2.066a8.012 8.012 0 013.614 6.258c0 2.288-1.623 3.218-3.614 2.067a7.998 7.998 0 01-3.63-6.259z" fill="#3C393F"/><path d="M47.297 12.295l2.227-1.284v.797l-2.227 1.284v-.797z" fill="#3C393F"/><path d="M46.25 14.598c0-2.303 1.622-3.218 3.628-2.067a7.999 7.999 0 013.615 6.244c0 2.303-1.623 3.233-3.615 2.067a7.94 7.94 0 01-3.629-6.244z" fill="#4C4951"/><path d="M74.175 28.118c0-2.287 1.623-3.217 3.615-2.066a7.998 7.998 0 013.629 6.258c0 2.288-1.623 3.218-3.63 2.067a8.014 8.014 0 01-3.614-6.259z" fill="#3C393F"/><path d="M73.129 27.011l2.227-1.284v.797l-2.227 1.284v-.797z" fill="#3C393F"/><path d="M72.081 29.314c0-2.303 1.623-3.218 3.63-2.067a7.997 7.997 0 013.614 6.244c0 2.303-1.623 3.233-3.615 2.066a7.94 7.94 0 01-3.629-6.243z" fill="#4C4951"/><path d="M111.986 49.964c0-2.288 1.623-3.218 3.614-2.067a8.004 8.004 0 013.63 6.259c0 2.287-1.623 3.217-3.63 2.066a7.999 7.999 0 01-3.614-6.258z" fill="#3C393F"/><path d="M79.678 37.786L55.602 24.192v17.181l24.076 9.904v-13.49z" fill="#67646A"/><path d="M116.309 140.518v-22.007l-56.96 2.834v22.022l26.01 15.026 30.95-17.875z" fill="#7C72E6"/><path d="M85.225 158.304l.133.089 30.951-17.875v-22.007l-31.084 1.549v38.244z" fill="#5E5CC6"/><path d="M116.309 118.51l-26.023-15.04-30.936 17.874 26.008 15.026 30.951-17.86z" fill="#9997EF"/><path d="M88.426 119.16l2.479-15.336-.62-.354-2.655 16.487 28.679-1.447-1.21-.708-26.673 1.358z" fill="#7C72E6"/><path d="M82.762 137.876l-6.845-3.956v4.236l6.845 3.956v-4.236z" fill="#CDB2F3"/><path d="M59.35 121.345l1.12.664 26.777-2.022-2.818 15.852.93.532 3.068-17.211-29.077 2.185z" fill="#7C72E6"/><path d="M111.588 77.359l-21.657-27.44 3.541-1.992 35.642 20.576 2.715 47.277-1.963 6.612-23.249 19.233-5.842 3.351-.207-9.978 3.482 2.007 18.116-19.055v-7.75l-10.578-32.841z" fill="#3D3A41"/><path d="M76.167 34.613L104.713 51.1v11.572L76.167 46.2V34.613z" fill="#4C4951"/><path d="M84.016 43.16l12.288 7.099-.162 9.122-16.803-9.712 4.677-6.51z" fill="#59565C"/><path d="M94.755 141.286l11.64-2.849-5.827-3.498-5.813 3.365v2.982z" fill="#4C4951"/><path d="M105.79 80.606L87.659 57.285v-6.111l35.642 20.59 2.714 47.263-1.962 6.613-23.25 19.232-6.048-3.483v-3.129l3.482 1.992 18.116-19.055v-7.749L105.79 80.606z" fill="#67646A"/><path d="M87.659 57.285v-6.111l35.642 20.59 1.18 20.444L106.1 81.595l-.31-.989-18.131-23.321z" fill="#59565C"/><path d="M81.154 44.9l4.249-2.464v6.273l-4.25 2.45v-6.258z" fill="#4C4951"/><path d="M74.412 30.746L39.507 10.613l-8.792 5.077 34.92 20.133 8.777-5.077zm10.931 11.631l-12.805-7.395-4.367 2.524 12.806 7.395 4.366-2.524zm22.38 12.531l-13.263-7.66-4.529 2.612 13.263 7.661 4.529-2.613z" fill="#5E8BDB"/><path d="M89.931 49.846l50.425 29.122v11.114l-26.275-8.472-24.15-25.388v-6.376z" fill="#70A2E6"/><path d="M125.028 85.137l-10.946-3.527-8.97-9.432-4.75-16.31 19.414 11.218 5.252 18.051z" fill="#88BBF2"/><path d="M140.341 90.038l13.469-7.779V71.19l-13.469 7.779v11.07z" fill="#326ABA"/><path d="M140.326 78.982l13.469-7.778-27.174-15.646-13.469 7.779 27.174 15.645z" fill="#5E8BDB"/><path d="M110.939 48.856l2.213-1.284v.797l-2.213 1.285v-.798z" fill="#3C393F"/><path d="M109.892 51.16c0-2.303 1.622-3.218 3.614-2.067a7.974 7.974 0 013.629 6.258c0 2.288-1.623 3.218-3.629 2.067a8.008 8.008 0 01-3.614-6.259zm3.098 21.047c0-2.302 1.623-3.217 3.614-2.066a7.963 7.963 0 013.629 6.258c0 2.288-1.623 3.218-3.629 2.067a8.016 8.016 0 01-3.614-6.259z" fill="#4C4951"/><path d="M140.889 69.676c1.407-.822 1.394-3.463-.029-5.898-1.422-2.435-3.716-3.742-5.123-2.92-1.407.823-1.394 3.464.029 5.9 1.423 2.434 3.716 3.741 5.123 2.918z" fill="#3C393F"/><path d="M133.658 62.052l2.227-1.284v.812l-2.227 1.284v-.812z" fill="#3C393F"/><path d="M132.61 64.355c0-2.288 1.623-3.218 3.629-2.067a8.011 8.011 0 013.615 6.259c0 2.288-1.623 3.218-3.615 2.066a8.01 8.01 0 01-3.629-6.258z" fill="#4C4951"/><path d="M25.065 0L176.72 87.898v5.18L25.065 5.181l-1.977-4.074L25.065 0z" fill="#67646A"/><path d="M23.088 1.107l151.656 87.898V94.2L23.088 6.288V1.107z" fill="#7D7883"/><path d="M174.729 89.005l2.007-1.122v5.196l-2.007 1.121v-5.195z" fill="#5F5C63"/><path d="M140.812 74.525l-9.308-5.388v-5.18l9.308 5.387v5.18zm-22.054-12.783l-10.386-6.022v-5.77l10.386 6.007v5.786zM81.685 40.251l-14.65-8.487v-5.18l14.65 8.487v5.18zM55.042 24.812l-14.738-8.546v-5.181l14.738 8.546v5.181z" fill="#67646A"/><path d="M113.196 63.337l-8.586-11.543 4.102-2.406 6.564 3.808 2.11 7.764-4.19 2.377z" fill="#326ABA"/><path d="M104.61 51.794l6.58 3.793 2.405 9.181-11.404-6.583 2.419-6.391z" fill="#88BBF2"/><path d="M75.651 41.772L67.287 30.51l4.086-2.392 6.58 3.794 1.947 7.41-4.249 2.45zM49.717 26.893l-8.262-11.1 4.101-2.39 6.565 3.793 1.903 7.218-4.307 2.48z" fill="#326ABA"/><path d="M81.168 44.783L30.744 15.66v11.1L57.02 48.65l24.15 2.51v-6.377z" fill="#70A2E6"/><path d="M67.139 49.698l-10.12-1.048-14.856-12.37-3.806-16.22 25.241 14.568 3.54 15.07z" fill="#88BBF2"/><path d="M51.265 36.9c0-2.302 1.623-3.232 3.63-2.066a7.968 7.968 0 013.614 6.244c0 2.303-1.623 3.218-3.614 2.066a7.97 7.97 0 01-3.63-6.243z" fill="#4C4951"/><path d="M67.301 30.51l6.58 3.808 2.404 9.166L64.882 36.9l2.42-6.392z" fill="#70A2E6"/><path d="M106.572 56.59c0-.619.428-.87.974-.56a2.158 2.158 0 01.959 1.683c0 .605-.428.856-.959.546a2.127 2.127 0 01-.974-1.668z" fill="#4C4951"/><path d="M135.915 76.444l-8.586-11.454 4.102-2.391 6.579 3.793 2.021 7.675-4.116 2.377z" fill="#326ABA"/><path d="M127.329 64.99l6.58 3.793 2.419 9.181-11.418-6.583 2.419-6.391z" fill="#70A2E6"/><path d="M129.291 69.787c0-.62.443-.856.974-.561a2.17 2.17 0 011.032 1.624c0 .62-.442.856-.973.546a2.138 2.138 0 01-1.033-1.61zM68.762 34.746c0-.62.442-.871.974-.561a2.169 2.169 0 01.973 1.683c0 .605-.442.856-.973.546a2.153 2.153 0 01-.974-1.668z" fill="#4C4951"/><path d="M41.47 15.793l6.579 3.809 2.404 9.166-11.403-6.583 2.42-6.391z" fill="#88BBF2"/><path d="M42.93 20.03c0-.62.443-.871.974-.561a2.17 2.17 0 01.973 1.682c0 .606-.442.857-.973.547a2.154 2.154 0 01-.974-1.668z" fill="#4C4951"/><path d="M53.109 37.137c0-1.225.855-1.712 1.932-1.092a4.22 4.22 0 011.918 3.32c0 1.226-.855 1.713-1.918 1.093a4.191 4.191 0 01-1.932-3.321z" fill="#3A70CE"/><path d="M118.936 117.61c0-1.225.87-1.712 1.932-1.092a4.238 4.238 0 011.933 3.321c0 1.225-.871 1.712-1.933 1.107a4.275 4.275 0 01-1.932-3.336z" fill="#4C4951"/><path d="M115.203 72.724c0-1.225.87-1.712 1.932-1.107a4.262 4.262 0 011.918 3.336c0 1.225-.855 1.712-1.918 1.092a4.236 4.236 0 01-1.932-3.321z" fill="#3A70CE"/></g><defs><clipPath id="clip0"><path fill="#fff" d="M0 0h400v327H0z"/></clipPath></defs></svg>