<svg width="36" height="42" fill="none" xmlns="http://www.w3.org/2000/svg"><path d="M13.375 19.25l-2.958 2.958C9 20.771 7.625 18.917 6.687 16.083l4.042-1.02c.667 1.854 1.604 3.124 2.646 4.187zm.77-12.52L8.313.895a1.031 1.031 0 00-1.479 0L1.021 6.729c-.646.646-.188 1.77.75 1.77h3.77c.042 1.688.167 3.21.396 4.522L9.98 12c-.146-1-.25-2.188-.27-3.5h3.708c.916 0 1.375-1.125.729-1.77zm20.834 0L29.167.916a1.031 1.031 0 00-1.48 0l-5.812 5.812c-.667.646-.208 1.77.73 1.77h3.707c-.208 7.668-2.666 9.897-5.291 12.25-1.042.918-2.104 1.918-3.021 3.23-.708-1.02-1.52-1.833-2.354-2.583l-2.938 2.937c1.938 1.771 3.209 3.209 3.209 7.084v8.333A2.09 2.09 0 0018 41.833a2.09 2.09 0 002.083-2.083v-8.333c0-4.209 1.48-5.542 3.73-7.563 2.874-2.583 6.416-5.792 6.666-15.354h3.75c.938 0 1.396-1.125.75-1.77z" fill="#fff"/></svg>