<svg width="38" height="38" fill="none" xmlns="http://www.w3.org/2000/svg"><path d="M33.583.25H4.417A4.166 4.166 0 00.25 4.417v29.166a4.166 4.166 0 004.167 4.167h29.166a4.179 4.179 0 004.167-4.167V4.417A4.166 4.166 0 0033.583.25zm0 33.333H4.417v-25h29.166v25zM27.333 19H10.667a2.09 2.09 0 01-2.084-2.083 2.09 2.09 0 012.084-2.084h16.666a2.09 2.09 0 012.084 2.084A2.09 2.09 0 0127.333 19zM19 27.333h-8.333a2.09 2.09 0 01-2.084-2.083 2.09 2.09 0 012.084-2.083H19a2.09 2.09 0 012.083 2.083A2.09 2.09 0 0119 27.333z" fill="#fff"/></svg>