<svg width="38" height="38" fill="none" xmlns="http://www.w3.org/2000/svg"><path d="M27.02 2.02l3.022 3.022-4.542 4.5a2.1 2.1 0 000 2.958 2.1 2.1 0 002.958 0l4.5-4.542 3.021 3.021c.646.646 1.771.188 1.771-.75V1.292c0-.584-.458-1.042-1.042-1.042h-8.937c-.938 0-1.396 1.125-.75 1.77zm-25 8.96l3.022-3.022 4.5 4.542a2.1 2.1 0 002.958 0 2.1 2.1 0 000-2.958l-4.542-4.5L10.98 2.02c.646-.646.188-1.771-.75-1.771H1.292A1.033 1.033 0 00.25 1.292v8.937c0 .938 1.125 1.396 1.77.75zm8.96 25l-3.022-3.022 4.542-4.5a2.1 2.1 0 000-2.958 2.1 2.1 0 00-2.958 0l-4.5 4.542L2.02 27.02c-.646-.646-1.771-.188-1.771.75v8.937c0 .584.458 1.042 1.042 1.042h8.937c.938 0 1.396-1.125.75-1.77zm25-8.96l-3.022 3.022-4.5-4.542a2.1 2.1 0 00-2.958 0 2.1 2.1 0 000 2.958l4.542 4.5-3.021 3.021c-.646.646-.188 1.771.75 1.771h8.937c.584 0 1.042-.458 1.042-1.042v-8.937c0-.938-1.125-1.396-1.77-.75z" fill="#fff"/></svg>