<svg width="46" height="34" fill="none" xmlns="http://www.w3.org/2000/svg"><path d="M38.625 8.667h-5.208V4.5A4.179 4.179 0 0029.25.333h-25A4.179 4.179 0 00.083 4.5v18.75a4.179 4.179 0 004.167 4.167 6.242 6.242 0 006.25 6.25 6.242 6.242 0 006.25-6.25h12.5a6.242 6.242 0 006.25 6.25 6.242 6.242 0 006.25-6.25h2.083a2.09 2.09 0 002.084-2.084v-6.937a4.19 4.19 0 00-.834-2.5L40.292 9.5a2.112 2.112 0 00-1.667-.833zM10.5 29.5a2.09 2.09 0 01-2.083-2.083 2.09 2.09 0 012.083-2.084 2.09 2.09 0 012.083 2.084A2.09 2.09 0 0110.5 29.5zm28.125-17.708L42.708 17h-9.291v-5.208h5.208zM35.5 29.5a2.09 2.09 0 01-2.083-2.083 2.09 2.09 0 012.083-2.084 2.09 2.09 0 012.083 2.084A2.09 2.09 0 0135.5 29.5z" fill="#fff"/></svg>