<svg width="30" height="30" xmlns="http://www.w3.org/2000/svg"><path d="M14.999 9.221a5.78 5.78 0 100 11.56 5.78 5.78 0 000-11.56zm0 9.534a3.755 3.755 0 110-7.51 3.755 3.755 0 010 7.51zm6.009-8.399a1.347 1.347 0 100-2.695 1.347 1.347 0 000 2.695z"/><path d="M25.666 7.639a5.756 5.756 0 00-3.291-3.29 8.258 8.258 0 00-2.733-.525c-1.203-.053-1.584-.068-4.637-.068-3.053 0-3.444 0-4.638.068a8.193 8.193 0 00-2.73.525 5.75 5.75 0 00-3.29 3.29 8.231 8.231 0 00-.525 2.732c-.053 1.203-.07 1.584-.07 4.638 0 3.052 0 3.44.07 4.637.02.935.196 1.858.524 2.734a5.762 5.762 0 003.293 3.29 8.233 8.233 0 002.731.562c1.204.053 1.585.07 4.638.07 3.052 0 3.443 0 4.637-.07a8.268 8.268 0 002.733-.523 5.767 5.767 0 003.29-3.292 8.231 8.231 0 00.524-2.732c.054-1.203.07-1.584.07-4.638 0-3.053 0-3.44-.07-4.637a8.227 8.227 0 00-.526-2.771zm-1.522 11.915a6.305 6.305 0 01-.389 2.11 3.734 3.734 0 01-2.14 2.138 6.233 6.233 0 01-2.087.39c-1.188.054-1.523.068-4.568.068-3.048 0-3.359 0-4.569-.069a6.2 6.2 0 01-2.086-.389 3.732 3.732 0 01-2.149-2.138 6.35 6.35 0 01-.388-2.087C5.713 18.39 5.7 18.055 5.7 15.01c0-3.046 0-3.358.067-4.569.008-.72.14-1.433.388-2.109a3.733 3.733 0 012.149-2.14 6.263 6.263 0 012.086-.388c1.189-.054 1.523-.07 4.569-.07 3.046 0 3.359 0 4.567.07a6.2 6.2 0 012.088.388 3.738 3.738 0 012.14 2.14c.246.669.377 1.374.389 2.087.054 1.188.067 1.522.067 4.568 0 3.045 0 3.373-.053 4.568h-.014v-.001z"/></svg>