<svg width="26" height="20" xmlns="http://www.w3.org/2000/svg"><path d="M22.541 4.996c.017.219.017.436.017.654 0 6.656-5.067 14.326-14.325 14.326-2.853 0-5.503-.826-7.733-2.261.405.046.795.062 1.216.062a10.087 10.087 0 006.252-2.15 5.045 5.045 0 01-4.71-3.492c.312.046.624.077.952.077a5.36 5.36 0 001.326-.17A5.033 5.033 0 011.5 7.1v-.063a5.08 5.08 0 002.275.64A5.027 5.027 0 011.53 3.484c0-.935.249-1.793.685-2.54a14.321 14.321 0 0010.382 5.268 5.721 5.721 0 01-.125-1.153A5.033 5.033 0 0117.506.024a5.02 5.02 0 013.679 1.59A9.946 9.946 0 0024.38.397a5.025 5.025 0 01-2.214 2.775c1-.114 1.977-.377 2.899-.78a10.805 10.805 0 01-2.524 2.604z"/></svg>